<svg width="26" height="26" viewBox="0 0 26 26" fill="none" xmlns="http://www.w3.org/2000/svg">
<path d="M20.2222 14.4444H11.5556L10 20.2222H11.5556V14.4444H5.77778V11.5556H14.4444L15 6L14.4444 5.77778V11.5556H20.2222M23.1111 0H2.88889C1.28556 0 0 1.28556 0 2.88889V23.1111C0 23.8773 0.304364 24.6121 0.846136 25.1539C1.38791 25.6956 2.12271 26 2.88889 26H23.1111C23.8773 26 24.6121 25.6956 25.1539 25.1539C25.6956 24.6121 26 23.8773 26 23.1111V2.88889C26 2.12271 25.6956 1.38791 25.1539 0.846136C24.6121 0.304364 23.8773 0 23.1111 0Z" fill="black"/>
</svg>
